# xmcd CD database file
#
# Track frame offsets:
#	183
#	22095
#	40658
#	56933
#	69383
#	88095
#	106083
#	126645
#	141470
#	159733
#	174220
#	187845
#
# Disc length: 2771 seconds
#
# Revision: 2
# Processed by: cddbd v1.5.2PL0 Copyright (c) Steve Scherf et al.
# Submitted via: CDex 1.70beta2
#
DISCID=a80ad10c
DTITLE=鍾鎮濤 - 最佳鍾鎮濤
DYEAR=1986
DGENRE=Blues
TTITLE0=浪漫小夜曲
TTITLE1=一段情
TTITLE2=夢裡嫣紅
TTITLE3=不可以不想你
TTITLE4=痴心的一句
TTITLE5=愛情組曲
TTITLE6=魅幻
TTITLE7=閃閃星辰
TTITLE8=要是有緣
TTITLE9=讓我坦蕩蕩
TTITLE10=淚之淚
TTITLE11=我寂寞
EXTD=YEAR: 1986
EXTT0=
EXTT1=
EXTT2=
EXTT3=
EXTT4=
EXTT5=
EXTT6=
EXTT7=
EXTT8=
EXTT9=
EXTT10=
EXTT11=
PLAYORDER=
